<svg width="40" height="40" viewBox="0 0 40 40" fill="none" xmlns="http://www.w3.org/2000/svg">
<mask id="mask0_2364_12351" style="mask-type:alpha" maskUnits="userSpaceOnUse" x="0" y="0" width="40" height="40">
<rect width="40" height="40" fill="#D9D9D9"/>
</mask>
<g mask="url(#mask0_2364_12351)">
<path d="M18.667 36.542C14.3337 36.1807 10.7017 34.4167 7.771 31.25C4.84033 28.0833 3.375 24.3333 3.375 20C3.375 15.6387 4.84033 11.8817 7.771 8.72899C10.7017 5.57633 14.3337 3.81933 18.667 3.45799V7.95799C15.5837 8.29133 13.0073 9.59699 10.938 11.875C8.868 14.153 7.833 16.8613 7.833 20C7.833 23.1387 8.868 25.854 10.938 28.146C13.0073 30.4373 15.5837 31.736 18.667 32.042V36.542ZM21.458 36.542V32.042C24.2913 31.792 26.7013 30.66 28.688 28.646C30.674 26.632 31.8337 24.2083 32.167 21.375H36.625C36.2917 25.4583 34.7013 28.9307 31.854 31.792C29.0067 34.6527 25.5413 36.236 21.458 36.542ZM32.167 18.625C31.8337 15.7917 30.674 13.368 28.688 11.354C26.7013 9.33999 24.2913 8.19433 21.458 7.91699V3.41699C25.514 3.75033 28.9723 5.34733 31.833 8.20799C34.6943 11.0693 36.2917 14.5417 36.625 18.625H32.167Z" fill="#FEFEFE"/>
</g>
</svg>
