<svg width="40" height="40" viewBox="0 0 40 40" fill="none" xmlns="http://www.w3.org/2000/svg">
<mask id="mask0_2364_12369" style="mask-type:alpha" maskUnits="userSpaceOnUse" x="0" y="0" width="40" height="40">
<rect width="40" height="40" fill="#D9D9D9"/>
</mask>
<g mask="url(#mask0_2364_12369)">
<path d="M20 27.542C22.8333 25.236 24.9793 23.0277 26.438 20.917C27.896 18.8057 28.625 16.8193 28.625 14.958C28.625 13.3473 28.3263 11.9793 27.729 10.854C27.1317 9.72934 26.4027 8.81267 25.542 8.10401C24.6807 7.39601 23.75 6.88901 22.75 6.58301C21.75 6.27767 20.8333 6.12501 20 6.12501C19.1667 6.12501 18.25 6.27767 17.25 6.58301C16.25 6.88901 15.3193 7.39601 14.458 8.10401C13.5973 8.81267 12.8683 9.72934 12.271 10.854C11.6737 11.9793 11.375 13.3473 11.375 14.958C11.375 16.8193 12.104 18.8057 13.562 20.917C15.0207 23.0277 17.1667 25.236 20 27.542ZM20 31.042C16.1667 28.1807 13.3127 25.4237 11.438 22.771C9.56267 20.1183 8.625 17.514 8.625 14.958C8.625 13.0413 8.96533 11.361 9.646 9.91701C10.3267 8.47234 11.2153 7.25701 12.312 6.27101C13.4093 5.28501 14.6317 4.54901 15.979 4.06301C17.3263 3.57634 18.6667 3.33301 20 3.33301C21.3333 3.33301 22.6737 3.57634 24.021 4.06301C25.3683 4.54901 26.5907 5.28501 27.688 6.27101C28.7847 7.25701 29.6733 8.47234 30.354 9.91701C31.0347 11.361 31.375 13.0553 31.375 15C31.375 17.528 30.4373 20.1183 28.562 22.771C26.6873 25.4237 23.8333 28.1807 20 31.042ZM20 17.792C20.8333 17.792 21.5487 17.4933 22.146 16.896C22.7433 16.2987 23.042 15.5693 23.042 14.708C23.042 13.8747 22.7433 13.1597 22.146 12.563C21.5487 11.9657 20.8333 11.667 20 11.667C19.1667 11.667 18.4513 11.9657 17.854 12.563C17.2567 13.1597 16.958 13.8747 16.958 14.708C16.958 15.5693 17.2567 16.2987 17.854 16.896C18.4513 17.4933 19.1667 17.792 20 17.792ZM8.625 36.667V33.875H31.375V36.667H8.625Z" fill="#FEFEFE"/>
</g>
</svg>
