<svg width="40" height="40" viewBox="0 0 40 40" fill="none" xmlns="http://www.w3.org/2000/svg">
<mask id="mask0_2364_12381" style="mask-type:alpha" maskUnits="userSpaceOnUse" x="0" y="0" width="40" height="40">
<rect width="40" height="40" fill="#D9D9D9"/>
</mask>
<g mask="url(#mask0_2364_12381)">
<path d="M32.208 32.208V26.208H7.792V32.208H32.208ZM32.208 23.417V16.583H7.792V23.417H32.208ZM32.208 13.792V7.792H7.792V13.792H32.208ZM7.792 35C7.042 35 6.389 34.7223 5.833 34.167C5.27767 33.611 5 32.958 5 32.208V7.792C5 7.042 5.27767 6.389 5.833 5.833C6.389 5.27767 7.042 5 7.792 5H32.208C32.958 5 33.611 5.27767 34.167 5.833C34.7223 6.389 35 7.042 35 7.792V32.208C35 32.958 34.7223 33.611 34.167 34.167C33.611 34.7223 32.958 35 32.208 35H7.792Z" fill="#FEFEFE"/>
</g>
</svg>
